<svg width="108" height="286" viewBox="0 0 108 286" fill="none" xmlns="http://www.w3.org/2000/svg">
<path d="M81.4964 23.4577C78.0812 14.0657 76.0384 11.3559 72.3245 7.69292C74.3086 10.3524 69.1161 14.9195 68.2622 21.3232C71.2506 20.8963 76.3736 21.3232 78.0775 26.8611L78.0812 26.873C79.7888 34.5574 78.935 41.8149 78.0812 45.2301C77.2274 48.6454 75.0928 62.3065 68.2623 70.4178C61.4317 78.5291 56.6011 82.5533 48.8557 90.0557C49.953 95.5555 51.1872 101.592 52.5161 107.986L61.4317 97.74C67.0817 91.193 69.9847 85.4384 74.6659 75.9676C78.4835 66.8101 80.171 61.6707 81.9234 52.4876C83.199 41.9365 84.9118 33.7036 81.4964 23.4577Z" fill="#870F0A"/>
<path d="M66.5545 3.81987C49.0513 -1.72994 38.3786 31.569 45.2091 70.8447C41.1827 49.6337 52.0301 25.0448 68.2622 21.3232C69.1161 14.9195 74.3086 10.3524 72.3245 7.69292C71.6064 6.9847 70.8392 6.27474 70.0086 5.52753C68.2336 4.36443 66.5545 3.81987 66.5545 3.81987Z" fill="#870F0A"/>
<path d="M52.5161 107.986C51.1872 101.592 49.953 95.5555 48.8557 90.0557C41.8143 96.2066 37.6426 100.151 29.8404 107.986C18.5143 121.143 17.8046 121.865 14.0447 128.051C10.2849 134.237 10.8264 133.269 5.93345 146.835C1.04049 160.4 5.07963 172.449 5.07963 172.449C8.77819 185.715 12.5098 190.687 19.5946 198.918C27.6159 207.538 32.9816 210.054 42.6477 214.286C52.0648 217.024 54.4955 216.377 59.7241 216.421C64.9527 216.464 75.896 214.645 75.6138 214.286L75.3282 213.006C70.4396 214.249 67.6229 214.794 62.2855 215.14C56.3293 215.074 52.9457 214.878 46.4899 213.006C40.0913 211.087 36.5251 209.912 30.6942 205.321C26.0836 201.238 23.7731 198.683 20.8753 192.941C17.771 187.4 15.8365 184.72 14.0447 176.291C13.6102 170.27 13.2121 166.946 14.0447 160.496C15.2602 155.15 15.3352 152.775 20.8753 142.992L52.5161 107.986Z" fill="#870F0A"/>
<path d="M28.1328 256.124C28.1577 261.704 28.45 264.549 31.548 269.358C41.6692 273.817 47.8593 270.639 49.9052 269.358C51.951 268.077 56.1401 262.782 56.3088 256.124C55.8077 252.242 55.2991 250.114 52.4666 246.732C49.8593 244.139 48.6292 242.561 41.367 242.462C37.3304 242.799 35.2521 243.333 32.4019 245.878C29.7523 249.338 28.4619 251.386 28.1328 256.124Z" fill="#870F0A"/>
<path d="M46.4899 165.192C51.4572 157.712 55.2249 155.955 62.2855 153.665C61.2184 148.748 60.1308 143.729 59.0508 138.723C49.6965 143.214 44.8405 145.833 41.367 150.677C35.8821 158.036 35.0104 161.549 33.6826 167.753C33.1966 173.071 33.5504 176.059 36.244 181.414C40.0862 191.66 49.0513 195.502 53.3204 196.783C46.4899 187.818 38.5516 177.145 46.4899 165.192Z" fill="#870F0A"/>
<path d="M75.3282 213.006L75.6138 214.286C86.0767 210.795 90.6968 204.717 98.8608 193.978L98.9998 193.795C104.354 184.094 105.461 178.414 103.269 167.753C100.043 154.464 95.5514 149.834 86.1925 142.992C75.3681 136.223 69.7925 136.97 59.0508 138.723C60.1308 143.729 61.2184 148.748 62.2855 153.665C71.0555 153.443 77.1084 154.053 81.9234 157.507C88.2289 162.157 89.6078 163.911 93.023 171.169C96.4383 178.426 95.1576 188.245 93.8769 193.795C92.5961 199.345 90.0347 201.052 86.1925 205.321C82.3503 209.59 75.3282 213.006 75.3282 213.006Z" fill="#870F0A"/>
<path d="M45.2091 70.8447C38.3786 31.569 49.0513 -1.72994 66.5545 3.81987C66.5545 3.81987 68.2336 4.36443 70.0086 5.52753M45.2091 70.8447C41.1827 49.6337 52.0301 25.0448 68.2622 21.3232M45.2091 70.8447C46.0912 75.9167 47.3435 82.4766 48.8557 90.0557M68.2622 21.3232C69.1161 14.9195 74.3086 10.3524 72.3245 7.69292M68.2622 21.3232C71.2506 20.8963 76.3736 21.3232 78.0775 26.8611M70.0086 5.52753C70.8357 6.06946 71.6565 6.79746 72.3245 7.69292M70.0086 5.52753C70.8392 6.27474 71.6064 6.9847 72.3245 7.69292M52.5161 107.986L61.4317 97.74C67.0817 91.193 69.9847 85.4384 74.6659 75.9676C78.4835 66.8101 80.171 61.6707 81.9234 52.4876C83.199 41.9365 84.9118 33.7036 81.4964 23.4577C78.0812 14.0657 76.0384 11.3559 72.3245 7.69292M52.5161 107.986C51.1872 101.592 49.953 95.5555 48.8557 90.0557M52.5161 107.986L20.8753 142.992C15.3352 152.775 15.2602 155.15 14.0447 160.496C13.2121 166.946 13.6102 170.27 14.0447 176.291C15.8365 184.72 17.771 187.4 20.8753 192.941C23.7731 198.683 26.0836 201.238 30.6942 205.321C36.5251 209.912 40.0912 211.087 46.4899 213.006C52.9457 214.878 56.3293 215.074 62.2855 215.14C67.6229 214.794 70.4396 214.249 75.3282 213.006M52.5161 107.986C54.4786 117.428 56.7474 128.046 59.0508 138.723M48.8557 90.0557C56.6011 82.5533 61.4317 78.5291 68.2623 70.4178C75.0928 62.3065 77.2274 48.6454 78.0812 45.2301C78.935 41.8149 79.7888 34.5574 78.0812 26.873M48.8557 90.0557C41.8143 96.2066 37.6426 100.151 29.8404 107.986C18.5143 121.143 17.8046 121.865 14.0447 128.051C10.2849 134.237 10.8264 133.269 5.93345 146.835C1.04049 160.4 5.07963 172.449 5.07963 172.449C8.77819 185.715 12.5098 190.687 19.5946 198.918C27.6159 207.538 32.9816 210.054 42.6477 214.286C52.0648 217.024 54.4955 216.377 59.7241 216.421C64.9527 216.464 75.896 214.645 75.6138 214.286M78.0812 26.873L78.0775 26.8611M78.0812 26.873C78.0812 26.873 79.7815 32.399 78.0775 26.8611M75.6138 214.286C78.9027 229.029 81.0695 238.62 81.0695 238.62L82.7772 248.439C83.3406 254.708 82.7749 258.032 81.0695 263.808C77.3615 271.94 74.2953 274.487 68.6892 278.75C63.4415 281.537 60.4172 281.889 55.0281 282.592C49.3583 282.434 43.5015 281.311 38.8055 277.896C34.1095 274.481 31.548 269.358 31.548 269.358M75.6138 214.286C75.5195 213.864 75.4243 213.437 75.3282 213.006M75.6138 214.286L75.3282 213.006M75.6138 214.286C86.0767 210.795 90.6968 204.717 98.8608 193.978M75.3282 213.006C75.3282 213.006 82.3503 209.59 86.1925 205.321C90.0347 201.052 92.5961 199.345 93.8769 193.795C95.1576 188.245 96.4383 178.426 93.023 171.169C89.6078 163.911 88.2289 162.157 81.9234 157.507C77.1084 154.053 71.0555 153.443 62.2855 153.665M75.3282 213.006C71.7348 196.891 67.102 175.857 62.2855 153.665M31.548 269.358C28.45 264.549 28.1577 261.704 28.1328 256.124C28.4619 251.386 29.7523 249.338 32.4019 245.878C35.2521 243.333 37.3304 242.799 41.367 242.462C48.6292 242.561 49.8593 244.139 52.4666 246.732C55.2991 250.114 55.8077 252.242 56.3088 256.124C56.1401 262.782 51.951 268.077 49.9052 269.358C47.8593 270.639 41.6692 273.817 31.548 269.358ZM62.2855 153.665C55.2249 155.955 51.4572 157.712 46.4899 165.192C38.5516 177.145 46.4899 187.818 53.3204 196.783C49.0513 195.502 40.0862 191.66 36.244 181.414C33.5504 176.059 33.1966 173.071 33.6826 167.753C35.0104 161.549 35.8821 158.036 41.367 150.677C44.8405 145.833 49.6965 143.214 59.0508 138.723M62.2855 153.665C61.2184 148.748 60.1308 143.729 59.0508 138.723M59.0508 138.723C69.7925 136.97 75.3681 136.223 86.1925 142.992C95.5514 149.834 100.043 154.464 103.269 167.753C105.461 178.414 104.354 184.094 98.9998 193.795M98.9998 193.795L98.8608 193.978M98.9998 193.795C98.9533 193.856 98.907 193.917 98.8608 193.978" stroke="#870F0A" stroke-width="6"/>
</svg>
